<?xml version="1.0" encoding="UTF-8" standalone="no"?>
<!-- Created with Inkscape (http://www.inkscape.org/) -->

<svg
   xmlns:dc="http://purl.org/dc/elements/1.1/"
   xmlns:cc="http://creativecommons.org/ns#"
   xmlns:rdf="http://www.w3.org/1999/02/22-rdf-syntax-ns#"
   xmlns:svg="http://www.w3.org/2000/svg"
   xmlns="http://www.w3.org/2000/svg"
   xmlns:sodipodi="http://sodipodi.sourceforge.net/DTD/sodipodi-0.dtd"
   xmlns:inkscape="http://www.inkscape.org/namespaces/inkscape"
   version="1.1"
   inkscape:output_extension="org.inkscape.output.svg.inkscape"
   sodipodi:docname="Heart.svg"
   inkscape:version="0.48.3.1 r9886"
   sodipodi:version="0.32"
   id="svg3542"
   height="297mm"
   width="210mm">
  <sodipodi:namedview
     id="base"
     pagecolor="#ffffff"
     bordercolor="#666666"
     borderopacity="1.0"
     inkscape:pageopacity="0.0"
     inkscape:pageshadow="2"
     inkscape:zoom="1.5270017"
     inkscape:cx="336.06352"
     inkscape:cy="589.12501"
     inkscape:document-units="px"
     inkscape:current-layer="layer1"
     showguides="true"
     inkscape:guide-bbox="true"
     inkscape:window-width="1680"
     inkscape:window-height="1001"
     inkscape:window-x="0"
     inkscape:window-y="25"
     showgrid="false"
     inkscape:window-maximized="1" />
  <defs
     id="defs3544">
    <inkscape:path-effect
       fuse_tolerance="0"
       vertical_pattern="false"
       prop_units="false"
       tang_offset="0"
       normal_offset="0"
       spacing="0"
       scale_y_rel="false"
       prop_scale="1"
       copytype="repeated"
       pattern="#path3049"
       is_visible="true"
       id="path-effect3035"
       effect="skeletal" />
  </defs>
  <metadata
     id="metadata3547">
    <rdf:RDF>
      <cc:Work
         rdf:about="">
        <dc:format>image/svg+xml</dc:format>
        <dc:type
           rdf:resource="http://purl.org/dc/dcmitype/StillImage" />
        <dc:title></dc:title>
      </cc:Work>
    </rdf:RDF>
  </metadata>
  <g
     id="layer1"
     inkscape:groupmode="layer"
     inkscape:label="Calque 1">
    <path
       id="path2361"
       d="M 254.61918,253.64205 C 117.17208,251.17089 -10.019359,466.12329 360.54492,688.98275 C 360.95119,688.25159 362.51369,688.25159 362.91995,688.98275 C 745.43794,458.93404 597.58506,237.34257 455.54564,254.5921 C 400.17294,261.31658 374.04232,292.04855 361.73239,318.48008 C 349.42256,292.04855 323.29184,261.31658 267.91932,254.5921 C 263.48052,254.05283 259.053,253.72191 254.61918,253.64205 z "
       style="fill:none;fill-rule:evenodd;stroke:#000000;stroke-width:3.79972553;stroke-linecap:butt;stroke-linejoin:round;stroke-miterlimit:4;stroke-dasharray:none;stroke-opacity:1" />
    <path
       id="path3037"
       d="M256.629778146 257.208011807C256.72224696 254.316152334 259.132420053 252.018083466 261.887779794 252.252277943C264.643140487 252.4864725 266.658374475 255.064064679 266.343105272 257.940199409C266.027834979 260.81634408 263.755771348 262.926604297 261.000410655 262.692409739C258.245050914 262.458215263 256.537309013 260.099881273 256.629778146 257.208011807C256.629778146 257.208011807 256.629778146 257.208011807 256.629778146 257.208011807M197.418199202 269.285974485C196.229688197 266.647983166 197.34142722 263.55891308 199.888507526 262.48221016C202.435588713 261.405506867 205.42854666 262.805522751 206.429247337 265.520325268C207.429951472 268.235137168 206.515244894 271.056462313 203.968163707 272.133165605C201.421083401 273.209868526 198.606714315 271.923974922 197.418199202 269.285974485C197.418199202 269.285974485 197.418199202 269.285974485 197.418199202 269.285974485M149.792046498 306.402816026C147.529467015 304.599415373 147.133347585 301.306863954 148.960219706 299.23095016C150.78709246 297.155035649 154.063846616 297.073067928 156.188953273 299.036598146C158.314067275 301.00013515 158.65278538 304.077103009 156.825912627 306.153017521C154.999040505 308.228931314 152.0546338 308.206222912 149.792046498 306.402816026C149.792046498 306.402816026 149.792046498 306.402816026 149.792046498 306.402816026M123.784875602 360.970883103C120.961931402 360.336474486 119.16728776 357.590193775 119.841893478 354.908449661C120.516499428 352.226704621 123.43503896 350.682773832 126.201503079 351.530218836C128.96797676 352.37766677 130.677699643 354.782803738 130.003093693 357.464548778C129.328487975 360.146292892 126.607829559 361.605293912 123.784875602 360.970883103C123.784875602 360.970883103 123.784875602 360.970883103 123.784875602 360.970883103M123.283349663 421.770105359C120.432380158 422.263599823 117.695321655 420.420846682 117.287137324 417.685834255C116.878952851 414.950820884 118.916515323 412.395132154 121.787420469 412.035336786C124.658335537 411.675540174 127.24198813 413.404199528 127.650172602 416.1392129C128.058356933 418.874225326 126.134329022 421.276609191 123.283349663 421.770105359C123.283349663 421.770105359 123.283349663 421.770105359 123.283349663 421.770105359M143.33108933 479.731063526C140.74950031 481.037616016 137.634393635 480.064127433 136.433532281 477.573154537C135.232670513 475.08218078 136.430187473 472.030083623 139.060655276 470.824967978C141.691132171 469.619848167 144.671033479 470.532084974 145.871895247 473.023058731C147.072756601 475.514031627 145.912687273 478.424506519 143.33108933 479.731063526C143.33108933 479.731063526 143.33108933 479.731063526 143.33108933 479.731063526M176.671028855 531.775635746C174.386493381 533.551208914 171.130321393 533.207414967 169.468423552 530.997169438C167.806525136 528.786923145 168.350432854 525.585678724 170.69100612 523.8846596C173.031587475 522.183634597 176.181204596 522.48994775 177.843103011 524.700194043C179.505000852 526.910439572 178.955572225 530.000056442 176.671028855 531.775635746C176.671028855 531.775635746 176.671028855 531.775635746 176.671028855 531.775635746M218.209648476 577.864236478C216.1909586 579.936997224 212.948550796 580.053260733 210.967530207 578.123917844C208.986508933 576.194574288 209.095814606 572.89470334 211.169797563 570.877278641C213.243787688 568.85984697 216.296840773 568.688434261 218.277862047 570.617777817C220.258882636 572.547120706 220.228345329 575.791468568 218.209648476 577.864236478C218.209648476 577.864236478 218.209648476 577.864236478 218.209648476 577.864236478M264.935805884 618.925726719C263.130891646 621.187110686 259.915641698 621.62191289 257.754346331 619.896883953C255.593050217 618.17185442 255.338713779 614.92025365 257.195777141 612.701501662C259.052846922 610.482742006 262.129231024 609.982648432 264.290527138 611.707677966C266.451822506 613.432706903 266.74072636 616.664334936 264.935805884 618.925726719C264.935805884 618.925726719 264.935805884 618.925726719 264.935805884 618.925726719M315.104130124 655.804387469C313.497681035 658.210834386 310.307081546 658.889944992 308.038462755 657.308693213C305.769843181 655.727440887 305.271985167 652.521335926 306.926463993 650.147658436C308.580948536 647.773972743 311.761248488 647.131583576 314.029868063 648.712835902C316.298486854 650.294087681 316.710584766 653.397932234 315.104130124 655.804387469C315.104130124 655.804387469 315.104130124 655.804387469 315.104130124 655.804387469M364.164445654 684.110839391C365.678831016 686.576264914 364.545994026 690.043643757 361.784623879 690.172226741C359.023252777 690.300809769 357.736386608 686.547031749 359.25004798 684.081158486C360.763714583 681.615276702 358.53604841 679.837904381 361.297419512 679.709321353C364.058789659 679.580738369 362.650055057 681.645405348 364.164445654 684.110839391C364.164445654 684.110839391 364.164445654 684.110839391 364.164445654 684.110839391M416.485647692 650.186632561C418.145590909 652.556487384 417.655123608 655.763727712 415.390158293 657.350202029C413.125192196 658.936676895 409.911048177 658.232028675 408.30078564 655.828135879C406.690517537 653.424234774 407.113998551 650.354662702 409.378964649 648.768187836C411.643929963 647.181713519 414.825698738 647.816769548 416.485647692 650.186632561C416.485647692 650.186632561 416.485647692 650.186632561 416.485647692 650.186632561M466.272309578 612.693651766C468.088034198 614.946358377 467.814616944 618.179327696 465.661614873 619.914688549C463.508612059 621.650050001 460.291322352 621.230657265 458.475597732 618.977950653C456.659866836 616.725236256 456.933283346 613.492267537 459.086286161 611.756906085C461.239288231 610.021545232 464.456578682 610.440937368 466.272309578 612.693651766C466.272309578 612.693651766 466.272309578 612.693651766 466.272309578 612.693651766M512.312796158 570.886719401C514.350081509 572.941194706 514.409860646 576.185126696 512.446316187 578.132242027C510.482771049 580.079358031 507.239456511 579.992324556 505.202171159 577.93784925C503.164878767 575.883366845 503.105098951 572.639435527 505.068644089 570.692319523C507.032188548 568.745204192 510.275503765 568.832236995 512.312796158 570.886719401C512.312796158 570.886719401 512.312796158 570.886719401 512.312796158 570.886719401M552.742740567 523.934951289C555.083686697 525.635453593 555.62639486 528.836293328 553.963828445 531.046033567C552.301261456 533.255774571 549.045759155 533.598769664 546.762659255 531.821354081C544.479551464 530.043932355 543.928496551 526.95626593 545.59106354 524.746524927C547.253629955 522.536784687 550.401786346 522.234443107 552.742740567 523.934951289C552.742740567 523.934951289 552.742740567 523.934951289 552.742740567 523.934951289M584.37774221 470.906297248C587.016931273 472.092182771 588.202793207 475.121242424 587.01828357 477.620028593C585.833773523 480.118815626 582.693499643 481.096815522 580.104341637 479.805334723C577.515174683 478.51384946 576.365805856 475.63067691 577.550315903 473.131889877C578.73482554 470.633103708 581.738544024 469.720407627 584.37774221 470.906297248C584.37774221 470.906297248 584.37774221 470.906297248 584.37774221 470.906297248M601.680801963 412.080321238C604.549869628 412.454454811 606.595383113 415.024487361 606.171611083 417.757124113C605.747838907 420.489761809 603.022046572 422.320055987 600.174292541 421.808354269C597.326528668 421.296650783 595.393805123 418.884078249 595.817577299 416.151440552C596.241349328 413.4188038 598.811724382 411.706186371 601.680801963 412.080321238C601.680801963 412.080321238 601.680801963 412.080321238 601.680801963 412.080321238M597.264625879 351.532610663C600.045611088 350.734125587 602.945731453 352.281374262 603.638913358 354.958371838C604.332095503 357.635370339 602.52984494 360.400017888 599.710831958 361.051649891C596.891809234 361.703284145 594.188880045 360.261855129 593.4956979 357.584856627C592.802515995 354.907859051 594.483631059 352.331098498 597.264625879 351.532610663C597.264625879 351.532610663 597.264625879 351.532610663 597.264625879 351.532610663M567.310497248 299.079323768C569.440933095 297.121583958 572.725610789 297.207008865 574.545171785 299.289327887C576.364733411 301.371647628 575.97412969 304.647318711 573.70234254 306.43909851C571.430547539 308.230884501 568.474770911 308.266012939 566.655209286 306.183693198C564.83564829 304.101374176 565.180054037 301.037070343 567.310497248 299.079323768C567.310497248 299.079323768 567.310497248 299.079323768 567.310497248 299.079323768M517.045280122 265.545079484C518.07765414 262.842167361 521.048889754 261.463484152 523.607599403 262.512240149C526.166309937 263.560996508 527.272809222 266.689388978 526.047693597 269.310576408C524.822573739 271.931772898 522.192545399 273.256015845 519.633834865 272.207259485C517.075125216 271.158503489 516.012902537 268.248000948 517.045280122 265.545079484C517.045280122 265.545079484 517.045280122 265.545079484 517.045280122 265.545079484M457.165980854 257.936964742C456.854419436 255.060439345 458.87562151 252.486581326 461.631610529 252.259962597C464.387600501 252.033343791 466.792423488 254.338090477 466.88127591 257.230077213C466.970128638 260.122073943 465.246264928 262.47585994 462.490274956 262.702478747C459.734285937 262.929097475 457.477543349 260.81350008 457.165980854 257.936964742C457.165980854 257.936964742 457.165980854 257.936964742 457.165980854 257.936964742M400.317168757 277.741813735C398.646178863 275.379849471 399.236473023 272.117993096 401.60073974 270.683873443C403.965007274 269.249753295 407.121396924 270.175339791 408.533304061 272.700726323C409.945216077 275.226121584 409.398925019 278.208023157 407.034657485 279.642143306C404.670390768 281.076262959 401.988164425 280.103786162 400.317168757 277.741813735C400.317168757 277.741813735 400.317168757 277.741813735 400.317168757 277.741813735M356.4106408 315.600502088C358.988620443 314.286899722 358.978616632 320.198551188 360.175221358 317.705552052C361.371826497 315.212552055 364.498362054 314.243356218 367.076338491 315.55696488C369.654323838 316.870578082 370.817866939 319.746519384 369.6212618 322.239519381C368.424657074 324.732518517 353.832652248 316.914108994 356.4106408 315.600502088C356.4106408 315.600502088 356.4106408 315.600502088 356.4106408 315.600502088M314.974171777 272.724556379C316.38608012 270.199170521 319.54159947 269.275081929 321.905865557 270.70920262C324.270132462 272.143323806 324.858537407 275.408057242 323.18754665 277.770020895C321.516550118 280.131992711 318.836210784 281.101591285 316.471943879 279.667470098C314.107677791 278.233349407 313.562258553 275.249950965 314.974171777 272.724556379C314.974171777 272.724556379 314.974171777 272.724556379 314.974171777 272.724556379"
       style="fill:#ff0000;fill-rule:evenodd;stroke:#000000;stroke-width:1px;stroke-linecap:butt;stroke-linejoin:miter;stroke-opacity:1" />
  </g>
</svg>
